<?xml version="1.0" standalone="no"?><!DOCTYPE svg PUBLIC "-//W3C//DTD SVG 1.1//EN" "http://www.w3.org/Graphics/SVG/1.1/DTD/svg11.dtd"><svg t="1719913907490" class="icon" viewBox="0 0 1024 1024" version="1.1" xmlns="http://www.w3.org/2000/svg" p-id="41177" xmlns:xlink="http://www.w3.org/1999/xlink" width="200" height="200"><path d="M0 227.555556C0 101.873778 101.873778 0 227.555556 0h568.888888c125.681778 0 227.555556 101.873778 227.555556 227.555556v568.888888c0 125.681778-101.873778 227.555556-227.555556 227.555556H227.555556C101.873778 1024 0 922.126222 0 796.444444V227.555556z" fill="#E7FAE2" p-id="41178"></path><path d="M654.222222 448a92.444444 92.444444 0 1 1-184.888889 0 92.444444 92.444444 0 0 1 184.888889 0z" fill="#B6E2AB" p-id="41179"></path><path d="M561.777778 384a64 64 0 1 0 0 128 64 64 0 0 0 0-128zM440.888889 448a120.888889 120.888889 0 1 1 241.777778 0 120.888889 120.888889 0 0 1-241.777778 0z" fill="#12122F" p-id="41180"></path><path d="M497.777778 391.111111a106.666667 106.666667 0 1 1-213.333334 0 106.666667 106.666667 0 0 1 213.333334 0zM853.333333 533.333333a92.444444 92.444444 0 1 1-184.888889 0 92.444444 92.444444 0 0 1 184.888889 0z" fill="#12122F" p-id="41181"></path><path d="M369.777778 526.222222a99.555556 99.555556 0 1 1-199.111111 0 99.555556 99.555556 0 0 1 199.111111 0z" fill="#FFFFFF" p-id="41182"></path><path d="M270.222222 455.111111a71.111111 71.111111 0 1 0 0 142.222222 71.111111 71.111111 0 0 0 0-142.222222z m-128 71.111111a128 128 0 1 1 256 0 128 128 0 0 1-256 0z" fill="#12122F" p-id="41183"></path><path d="M711.111111 556.615111a99.555556 99.555556 0 1 1-199.111111 0 99.555556 99.555556 0 0 1 199.111111 0z" fill="#FFFFFF" p-id="41184"></path><path d="M611.555556 485.504a71.111111 71.111111 0 1 0 0 142.222222 71.111111 71.111111 0 0 0 0-142.222222z m-128 71.111111a128 128 0 1 1 256 0 128 128 0 0 1-256 0z" fill="#12122F" p-id="41185"></path><path d="M532.394667 571.704889a107.975111 107.975111 0 1 1-215.950223 0 107.975111 107.975111 0 0 1 215.950223 0z" fill="#B6E2AB" p-id="41186"></path><path d="M424.419556 492.16a79.530667 79.530667 0 1 0 0 159.075556 79.530667 79.530667 0 0 0 0-159.075556z m-136.419556 79.544889a136.419556 136.419556 0 1 1 272.839111 0 136.419556 136.419556 0 0 1-272.839111 0z" fill="#12122F" p-id="41187"></path><path d="M850.446222 556.615111C760.220444 626.218667 641.749333 668.444444 512 668.444444c-129.735111 0-248.220444-42.225778-338.446222-111.829333C195.413333 724.053333 338.602667 853.333333 512 853.333333s316.586667-129.28 338.446222-296.718222z" fill="#64BF4C" p-id="41188"></path><path d="M512 199.111111c172.8 0 312.888889 140.088889 312.888889 312.888889 0 9.870222-0.455111 19.626667-1.351111 29.255111C739.626667 602.695111 631.04 640 512 640c-119.04 0-227.626667-37.304889-311.537778-98.744889A316.785778 316.785778 0 0 1 199.111111 512c0-172.8 140.088889-312.888889 312.888889-312.888889zM218.481778 620.615111C303.175111 668.970667 404.024889 696.888889 512 696.888889c107.975111 0 208.824889-27.918222 293.518222-76.273778-37.063111 100.124444-123.889778 176.113778-230.456889 197.916445A312.561778 312.561778 0 0 1 512 824.888889a316.600889 316.600889 0 0 1-67.441778-7.296c-104.561778-22.968889-189.525333-98.232889-226.076444-196.977778zM142.222222 512c0 108.487111 46.72 206.08 121.144889 273.720889l11.335111 9.884444A368.284444 368.284444 0 0 0 512 881.777778c204.231111 0 369.777778-165.546667 369.777778-369.777778S716.231111 142.222222 512 142.222222 142.222222 307.768889 142.222222 512z m462.407111-261.831111a21.333333 21.333333 0 0 0-14.592 40.106667c23.196444 8.433778 39.637333 18.432 59.875556 33.834666a21.333333 21.333333 0 0 0 25.841778-33.948444c-22.613333-17.208889-42.808889-29.681778-71.111111-39.992889z m124.131556 88.689778a21.333333 21.333333 0 0 0-31.032889 29.269333l6.769778 7.168a21.333333 21.333333 0 0 0 31.032889-29.269333l-6.769778-7.168z" fill="#12122F" p-id="41189"></path></svg>