<?xml version="1.0" standalone="no"?><!DOCTYPE svg PUBLIC "-//W3C//DTD SVG 1.1//EN" "http://www.w3.org/Graphics/SVG/1.1/DTD/svg11.dtd"><svg t="1719913283699" class="icon" viewBox="0 0 1024 1024" version="1.1" xmlns="http://www.w3.org/2000/svg" p-id="19864" xmlns:xlink="http://www.w3.org/1999/xlink" width="200" height="200"><path d="M977.92 312.832C926.72 190.464 830.464 93.184 708.608 40.96 583.168-12.288 440.832-12.288 314.88 40.96c-60.416 25.6-114.688 62.976-160.768 109.568C58.88 246.784 5.632 376.832 6.144 512c-0.512 204.8 121.344 389.632 309.248 471.04 62.464 26.624 129.024 40.448 197.12 39.936 134.656 0 263.168-53.76 357.376-149.504 46.592-46.592 83.456-101.888 108.544-162.304 52.736-127.488 52.736-270.848-0.512-398.336z m-266.24-45.056c53.76 0 97.792 44.544 97.792 99.328s-44.032 99.328-97.792 99.328c-54.272 0-98.304-44.544-98.304-99.328s44.544-99.328 98.304-99.328z m72.192 341.504c0 150.016-121.856 271.872-271.872 271.872S240.128 759.296 240.128 609.28M332.8 267.776c53.76 0 97.792 44.544 97.792 99.328S386.56 466.432 332.8 466.432c-54.272 0-98.304-44.544-98.304-99.328S279.04 267.776 332.8 267.776z" p-id="19865" fill="#d59d64"></path></svg>