<?xml version="1.0" standalone="no"?><!DOCTYPE svg PUBLIC "-//W3C//DTD SVG 1.1//EN" "http://www.w3.org/Graphics/SVG/1.1/DTD/svg11.dtd"><svg t="1719913608377" class="icon" viewBox="0 0 1194 1024" version="1.1" xmlns="http://www.w3.org/2000/svg" p-id="30395" xmlns:xlink="http://www.w3.org/1999/xlink" width="233.203125" height="200"><path d="M920.8832 903.799467H279.773867A178.090667 178.090667 0 0 1 101.6832 725.7088V298.2912A178.090667 178.090667 0 0 1 279.773867 120.200533h641.109333a178.090667 178.090667 0 0 1 178.090667 178.090667v427.4176a178.090667 178.090667 0 0 1-178.090667 178.090667zM315.392 797.013333h569.873067a106.8544 106.8544 0 0 0 106.8544-106.8544V440.763733H208.5376v249.326934A106.8544 106.8544 0 0 0 315.392 797.013333z m569.873067-570.026666H315.392a106.8544 106.8544 0 0 0-106.8544 106.8544h783.581867a106.8544 106.8544 0 0 0-106.8544-106.8544zM687.1552 583.236267h146.926933a51.2 51.2 0 0 1 51.2 51.2v4.4544a51.2 51.2 0 0 1-51.2 51.2h-146.926933a51.2 51.2 0 0 1-51.2-51.2v-4.4544a51.2 51.2 0 0 1 51.2-51.2z" fill="#d59d64" p-id="30396"></path></svg>